<svg id="Layer_1" data-name="Layer 1" xmlns="http://www.w3.org/2000/svg" viewBox="0 0 432 432"><defs><style>.cls-5{fill:#fff}</style></defs><path fill="#fd7853" d="M0 0h432v432H0z"/><path d="M109.57 204.39l-1.89-.59a13.58 13.58 0 0 1 1.23 3.52 10.67 10.67 0 0 1 .66-2.93z" fill="none"/><path d="M68.45 173.92z" fill="#7eb5ee"/><path d="M269 212.72c-.29 1.1-.49 1.74-.49 1.74C260.53 240 220 283.59 220 283.59s-44.36-39.72-54.58-64.42c0 0-8.28-18.59 4.74-31.57a32.82 32.82 0 0 1 10.17-7.14 25.09 25.09 0 0 1 22.59 1.35c6.08 3.4 10.25 10.08 12.08 14.19a12 12 0 0 1 1.11 3.15 9.9 9.9 0 0 1 .59-2.62c1.35-4.1 4.92-11.67 11-15.81 6.82-4.64 19.19-8.81 33.16 2.78 11.56 9.57 9.3 24.2 8.14 29.22z" opacity=".72" fill="#fff"/><path class="cls-5" d="M296.42 128.8l-20.32 70a4.94 4.94 0 0 0 .09-1.25l-.24 1.76s-2.25-18.82-17-26.53c-.62-.33-1.26-.63-1.93-.91-27.76-12.45-40.55 11.65-40.55 11.65l-.72 2.48c-17.14-23.44-35-14.48-35-14.48l-.17-3.81c-.27-14.64-1.07-59.32-1.46-67.86-.47-10.25.84-23.08 7.32-23.51s7.56 7.3 7.56 7.3 2 10.63 4.1 35.73 5 27.87 10.15 28.65 6.44-7.83 6.44-7.83S217 114 219.48 95.66s6.59-33 12.85-32.59 4.27 20.8 4.27 20.8l-5.53 46.88s-1.59 19.19 1.6 19.18 4-5.25 4-5.25 7.36-29 11.7-41.52S260.55 75.39 266 79.48s.41 21.85.41 21.85l-12.75 47.35s-3.24 11.17 1.81 14.28 8.59-5.62 8.59-5.62L281 126s6.94-16 14.69-13.84.73 16.64.73 16.64zM169.13 180.94s-19.15 13-10 34.68c0 0-9.92-21.13-22-31.9S121 165.5 127.05 158.91s20.16 3.29 42.08 22.03z"/><text transform="translate(161.37 356.12)" font-size="28.6" font-family="Inter-SemiBold,Inter" font-weight="600" fill="#fff">Sponsor</text></svg>