<svg id="Layer_1" data-name="Layer 1" xmlns="http://www.w3.org/2000/svg" viewBox="0 0 432 432"><defs><style>.cls-3{fill:none;stroke:#fff;stroke-linecap:round;stroke-miterlimit:10;stroke-width:7.68px}</style></defs><path fill="#10776b" d="M0 0h432v432H0z"/><path d="M272.23 222.63c3.16 15.8 8.89 59.42-24.45 58.26 0 0-14.64 3.06-29.76-16.93s-37.24-35.72-47.81-53.36c-8.43-14.1-38.39-69.5-8.3-117.89s82.29-26.13 91.9-9.71c9 15.41 15.06 100.65 16.7 126.59a97.91 97.91 0 0 0 1.72 13.04z" fill="#abffef" opacity=".42"/><path class="cls-3" d="M219.88 226.38s-55.06-29.8-42.93-92.93 79.8-54 60.1 23.74"/><path class="cls-3" d="M240.57 134s-52.51 24.72-34.84 54c0 0 14.56 17.19 28.64 19.36 0 0 7.58 2.7 10.56 7.58s8.4 7.85 13 5.14 2.17-10.83-2.44-16.51-12.45-19.23-6-28.17"/><path class="cls-3" d="M272.23 222.63c3.16 15.8 8.89 59.42-24.45 58.26 0 0-14.64 3.06-29.76-16.93s-37.24-35.72-47.81-53.36c-8.33-13.93-37.67-68.17-9.37-116.13a46.69 46.69 0 0 1 2.85-3.74c7.1-9.62 48.72-51.07 86.16-11a31.49 31.49 0 0 1 7.47 13.61c1.05 4.06 2.28 9.35 3.08 14.52"/><text transform="translate(147.92 356.12)" font-size="28.6" fill="#fff" font-family="Inter-SemiBold,Inter" font-weight="600">Confidant</text></svg>