<svg id="Layer_1" data-name="Layer 1" xmlns="http://www.w3.org/2000/svg" viewBox="0 0 432 432"><defs><style>.cls-2{fill:#fff}</style></defs><path fill="#7b7bc4" d="M0 0h432v432H0z"/><rect class="cls-2" x="190.56" y="203.76" width="21.54" height="74.31" rx="9.49" transform="rotate(168.84 201.334 240.912)"/><rect class="cls-2" x="166.8" y="109.76" width="78.78" height="141.85" rx="10.88" transform="rotate(-103.66 206.203 180.68)"/><rect x="277.59" y="150.3" width="18.99" height="29.45" rx="8.96" transform="rotate(-103.66 287.096 165.015)" opacity=".65" fill="#fff"/><path class="cls-2" d="M237 213.44l-13.41-76.7a1 1 0 0 1 .18-.8L265 76.28a1.08 1.08 0 0 1 2 .43l31.81 177.53a1.08 1.08 0 0 1-1.68 1.08l-59.61-41.18a1 1 0 0 1-.52-.7z"/><path d="M283.25 167.86L232 176a5.91 5.91 0 0 1-.69.19L180 188.69a11.32 11.32 0 0 1-2.56.3 10.77 10.77 0 0 1-2.53-21.23l51.28-12.47v-.19L274 116.51l2.3 12.8z" opacity=".29" fill="#7b7bc4"/><text transform="translate(158.87 347.87)" font-size="26" font-family="Inter-SemiBold,Inter" font-weight="600" fill="#fff">Amplifier</text></svg>