<svg id="Layer_1" data-name="Layer 1" xmlns="http://www.w3.org/2000/svg" viewBox="0 0 996 587"><defs><style>.cls-3{fill:#db9e6f}.cls-5{fill:#d96e56}.cls-6{fill:#b98262}.cls-7{fill:#9ed1da}</style></defs><path fill="#e0cccd" d="M-3 .87h999v587H-3z"/><path d="M809.57 423.05l18.79-113.16s284.18 54.49 310.53 63.65l-58.4 167.81z" fill="#10776b"/><path class="cls-3" d="M670.63 278.51s-76 1.22-83.9 2.53c0 0-18 5.2 1.2 15.94l27 2-42.36 6.86-8.4 1s-7.23 5.22 3.54 12.06c0 0 8.48 5.66 22.13 4.22L567 329.8l-18 5s-13.25 5.83 3.37 15.87c0 0 29.18-4.93 65-9.08L568.7 370.3l-13 6.29s-11.33 9.21 4.45 12.77a296.41 296.41 0 0 0 67.57-25.22s36.94-6.1 61.34 18.25c0 0 33.7 48.25 96 27.46l24.49 13.24 15.13-90.93-20.68-1.5s-74.38-46.82-133.37-52.15z"/><path class="cls-3" d="M702.35 396s-36.13 10.63-46.18 15.39-21.17 10.01-15.87 19c0 0 20.63-5.74 36.51-4.72s54.46-.48 72.47-10.84S702.35 396 702.35 396z"/><path d="M504 275.47c15.1 9.47 80.71 51.36 123 89.69a10 10 0 0 0 6.1 2.59c5.47.32 14.56-.83 11.26-12.86a12.57 12.57 0 0 0-3-5.3l-48-50.69s16.59 2.28 51.41 30.39 46.68 39.39 46.68 39.39 9.63 10.27 17.4 1.31-12.45-28.5-12.45-28.5l23.81 20.72a12.93 12.93 0 0 0 10.46 3.17c3.07-.49 6.06-2.15 6.68-6.57 1.35-9.65-4-15.64-9.45-21.63s-51.88-56.33-51.88-56.33l59.35 53.07s9.6 13.05 16 3.56c5.47-8.07-12.34-23.3-17.76-27.65a22 22 0 0 1-2.9-2.8l-46.51-54.19a11.71 11.71 0 0 0-1.56-1.51c-5-4-30.88-24.83-38.41-30.57-8.34-6.37-57.33-43.38-71.17-40.67s40.94-9.53 40.94-9.53 18.31-2.56 13-14.65-81.37-6.69-81.37-6.69L509.26 154a10 10 0 0 1-6.66-1.47c-12.54-7.93-59.73-37.65-66.93-39.8-8.32-2.49-46 81.86-46 81.86L448 215.71a26.61 26.61 0 0 1 11 7.44c9.51 10.78 31.34 35.78 40 47.59a18.51 18.51 0 0 0 5 4.73z" fill="#be7a7c"/><path class="cls-5" d="M485.5 105s-1 78.5-74.86 123.2c0 0-137.36-42.26-308.73-174L204.57-83.2S431.77 52.39 485.5 105z"/><path class="cls-6" d="M505 489c7.18-13.25 99.41-82.28 99.41-82.28L630 395s14.63-11.7 64-22.31 56.31-34.37 41-35.84-59.24 12.44-59.24 12.44l-5.12-10.52s29.26-9.59 41.69-19.47-4.39-10.24-4.39-10.24l-24.13 7.68-36.2 8.78 48.63-19.38s7.68-4.39 7.9-13.17-12.65-3.65-12.65-3.65l-50.1 16.82s42-15.73 57.41-30-7.31-14.62-7.31-14.62-44.49 15.94-69.79 25.8-48 27.09-48 27.09l-22.78 19.71s9.85-38.8 9.23-55.06-12.93.87-12.93.87 8-9.85-20.32 36.95-31.41 69-31.41 69L451.13 416"/><path class="cls-6" d="M519.43 474.18s22.6-18.33 47.45-20 42-12.15 42-12.15l56.88-30.92 44.73-26.51 31.78-15.46s26.21-20.44-5.27-22.09S666.84 362 666.84 362l-67.93 19.3-34.79 29.26L531 437.07l-21 15.46z"/><path class="cls-7" d="M442.92 400.41s78.46 93.59 72.56 99.5-64.35 43.3-64.35 43.3L231.67 645.84l-68.41-122.72s231.32-119.61 279.66-122.71z"/><path d="M735.13 195.21c-14.73 10-79.38 53.38-131.46 76.83a10 10 0 0 0-4.81 4.54c-2.49 4.89-5.07 13.68 7.27 15.47a12.59 12.59 0 0 0 6.08-.65l65.66-23.67s-8.74 14.3-48.44 34.94-54.78 27-54.78 27-13.27 4.72-8.17 15.43 31.1 0 31.1 0l-28.52 13.52a12.9 12.9 0 0 0-7.1 8.32c-.77 3-.45 6.41 3.35 8.75 8.31 5.09 16 2.54 23.6 0s72.4-25 72.4-25l-72.4 33.14s-15.8 3.57-9.68 13.26c5.2 8.24 26.29-2 32.45-5.2a20.93 20.93 0 0 1 3.73-1.54l68.3-21a11 11 0 0 0 2-.83c5.71-3 35.12-18.35 43.39-22.94 9.18-5.1 62.71-35.17 65.77-48.94S787.23 338 787.23 338s-5 17.84 8.2 17.84 38.71-71.88 38.71-71.88l10.2-35.25a10 10 0 0 1 4-5.52c12.3-8.31 58.43-39.66 63.28-45.39 5.61-6.63-56.59-74.95-56.59-74.95l-42.73 45a26.7 26.7 0 0 1-11.2 7c-13.69 4.39-45.33 14.39-59.61 17.56a18.21 18.21 0 0 0-6.36 2.8z" fill="#86484a"/><path d="M842 77.5s1 78.49 74.86 123.2c0 0 137.36-42.27 308.73-174l-102.71-137.45S895.67 24.85 842 77.5z" fill="#7b7bc4"/><path class="cls-5" d="M101.91 54.22L-24.45-35.3l144-117.08 85.02 69.18L101.91 54.22z"/><path class="cls-7" d="M163.25 523.13L-19.07 625.49l91.16 71.33 159.58-50.98-68.42-122.71z"/></svg>